<svg xmlns="http://www.w3.org/2000/svg" viewBox="-0.5 -0.5 16 16" fill="none" stroke="#395181" stroke-linecap="round" stroke-linejoin="round" id="Github--Streamline-Lucide.svg" height="16" width="16"><desc>Github Streamline Icon: https://streamlinehq.com</desc><path d="M10.168999999999999 14.1818125V11.5090625C10.2619375 10.6720625 10.0219375 9.8320625 9.5008125 9.1704375C11.505375 9.1704375 13.509875000000001 7.8340625 13.509875000000001 5.4954374999999995C13.563375 4.6602500000000004 13.329500000000001 3.838375 12.8416875 3.1568125C13.0288125 2.3884374999999998 13.0288125 1.5865624999999999 12.8416875 0.8181875C12.8416875 0.8181875 12.1735625 0.8181875 10.8371875 1.8204375000000002C9.0731875 1.486375 7.2556875 1.486375 5.491687499999999 1.8204375000000002C4.155375 0.8181875 3.4871875 0.8181875 3.4871875 0.8181875C3.2866875 1.5865624999999999 3.2866875 2.388375 3.4871875 3.1568125C3.0006250000000003 3.835625 2.7645 4.6620625 2.819 5.4954374999999995C2.819 7.8340625 4.8235 9.1704375 6.8280625 9.1704375C6.567499999999999 9.497875 6.373687500000001 9.8720625 6.2601249999999995 10.2729375C6.1465000000000005 10.673874999999999 6.113125 11.0948125 6.159875 11.5090625V14.1818125" stroke-width="1"></path><path d="M6.159875 11.5090625C3.146375 12.845437500000001 2.819 10.172749999999999 1.4826249999999999 10.172749999999999" stroke-width="1"></path></svg>