<svg xmlns="http://www.w3.org/2000/svg" fill="none" viewBox="-0.5 -0.5 24 24" id="Sass--Streamline-Svg-Logos.svg" height="24" width="24"><desc>Sass Streamline Icon: https://streamlinehq.com</desc><path fill="#CD6799" d="M19.63179375 12.764377083333335c-0.7856895833333334 0.004120833333333333 -1.4685260416666668 0.19334375 -2.040315625 0.47305729166666666 -0.20977916666666668 -0.41546145833333337 -0.4195822916666667 -0.7856895833333334 -0.45659791666666666 -1.0571854166666668 -0.041136458333333334 -0.3167291666666667 -0.090490625 -0.5100729166666667 -0.041136458333333334 -0.88851875 0.049354166666666664 -0.3784458333333333 0.2714958333333333 -0.9173166666666668 0.26737500000000003 -0.958453125 -0.004096875000000001 -0.041136458333333334 -0.049354166666666664 -0.23445625 -0.5018552083333333 -0.23857708333333336 -0.45247708333333336 -0.004120833333333333 -0.8432614583333333 0.08639374999999999 -0.88851875 0.20568229166666668 -0.045233333333333334 0.11928854166666668 -0.13162708333333334 0.390784375 -0.18922291666666666 0.6704979166666667 -0.07815208333333333 0.41136458333333337 -0.9049541666666667 1.879890625 -1.3780114583333334 2.649096875 -0.15220729166666666 -0.3002697916666667 -0.283834375 -0.5635479166666667 -0.3126322916666667 -0.7733270833333333 -0.041136458333333334 -0.316753125 -0.090490625 -0.5100729166666667 -0.041136458333333334 -0.88851875 0.049354166666666664 -0.3784458333333333 0.2714958333333333 -0.9173166666666668 0.26737500000000003 -0.958453125 -0.004120833333333333 -0.041136458333333334 -0.049354166666666664 -0.23448020833333336 -0.5018552083333333 -0.23857708333333336 -0.45247708333333336 -0.004120833333333333 -0.8432614583333333 0.08636979166666667 -0.88851875 0.20565833333333336 -0.045233333333333334 0.1193125 -0.09461145833333333 0.39902604166666666 -0.18922291666666666 0.670521875 -0.09461145833333333 0.27147187500000003 -1.192909375 2.723128125 -1.4808645833333334 3.356610416666667 -0.14808645833333334 0.3249708333333334 -0.2755927083333334 0.584128125 -0.36610729166666667 0.7610125000000001 0 0 -0.004096875000000001 0.012338541666666666 -0.016435416666666668 0.03291875 -0.07815208333333333 0.15218333333333334 -0.123409375 0.23445625 -0.123409375 0.23445625l0 0.004120833333333333c-0.06171666666666667 0.11107083333333334 -0.12753020833333334 0.2139 -0.160425 0.2139 -0.024677083333333332 0 -0.06993437500000001 -0.2961729166666667 0.008217708333333334 -0.6992958333333333 0.16454583333333334 -0.851503125 0.5553302083333334 -2.176063541666667 0.551209375 -2.221296875 0 -0.024677083333333332 0.07405520833333333 -0.2550364583333333 -0.2550364583333333 -0.374325 -0.32085 -0.1193125 -0.43601770833333336 0.07815208333333333 -0.464815625 0.07815208333333333 -0.02879791666666667 0 -0.049378125 0.06993437500000001 -0.049378125 0.06993437500000001s0.35788958333333337 -1.48910625 -0.6828364583333333 -1.48910625c-0.6499416666666668 0 -1.5466781250000001 0.711634375 -1.9909375000000002 1.3533583333333332 -0.2797135416666667 0.15218333333333334 -0.8761802083333333 0.4771541666666667 -1.5137833333333333 0.8268020833333334 -0.24269791666666665 0.13574791666666666 -0.49361354166666666 0.2714958333333333 -0.7280937500000001 0.39902604166666666 -0.016459375 -0.016459375 -0.032894791666666666 -0.037039583333333334 -0.049354166666666664 -0.053475 -1.258746875 -1.345140625 -3.586988958333334 -2.2953520833333334 -3.48826625 -4.1011875 0.0370228125 -0.6581593750000001 0.26326614583333335 -2.385842708333333 4.471396458333333 -4.483730208333333 3.463584375 -1.7071031250000002 6.21963125 -1.2340697916666667 6.696809375 -0.18510208333333333 0.6828364583333333 1.4973 -1.4767677083333335 4.278047916666667 -5.055519791666667 4.681170833333333 -1.365696875 0.15220729166666666 -2.081428125 -0.374325 -2.262433333333333 -0.5717656249999999 -0.18922291666666666 -0.20568229166666668 -0.21802083333333336 -0.21802083333333336 -0.2879552083333333 -0.17688437499999998 -0.11516770833333334 0.06169270833333334 -0.041136458333333334 0.24679479166666668 0 0.35374479166666667 0.10695 0.27973750000000003 0.5471125 0.7733510416666667 1.291665625 1.0160489583333334 0.6581593750000001 0.2139 2.2583125 0.33318854166666667 4.195775 -0.41546145833333337 2.167821875 -0.8391645833333334 3.8625864583333334 -3.171532291666667 3.3648520833333335 -5.125454166666667 -0.49773437500000006 -1.9827197916666668 -3.78853125 -2.6367583333333333 -6.902467708333334 -1.53021875 -1.8510927083333335 0.6581593750000001 -3.8584895833333337 1.6947645833333336 -5.302331354166667 3.0440020833333334C0.42165708333333335 8.239510416666667 0.15016436458333335 9.63398125 0.2612296875 10.218109375000001c0.3990116666666667 2.0732104166666665 3.2579140625000003 3.422447916666667 4.401469270833333 4.4220375 -0.05759583333333334 0.032894791666666666 -0.11107083333333334 0.06169270833333334 -0.156328125 0.08636979166666667 -0.5717656249999999 0.283834375 -2.7519332291666667 1.4232927083333333 -3.2949177083333336 2.628540625 -0.6170277083333333 1.365696875 0.09872270833333334 2.34470625 0.5717776041666667 2.4763333333333337 1.4685380208333334 0.40724375 2.9781765625000003 -0.3249708333333334 3.7885432291666667 -1.5343395833333335 0.8103666666666667 -1.2093687499999999 0.711634375 -2.7807239583333336 0.337309375 -3.5006000000000004 -0.004096875000000001 -0.008217708333333334 -0.008217708333333334 -0.016459375 -0.016459375 -0.024677083333333332 0.14808645833333334 -0.08639374999999999 0.30029375 -0.17688437499999998 0.44838020833333336 -0.26327812500000003 0.2920760416666667 -0.17276354166666666 0.5800072916666666 -0.33318854166666667 0.8268260416666666 -0.464815625 -0.13986875000000001 0.38256666666666667 -0.24269791666666665 0.8391645833333334 -0.2920520833333334 1.4973239583333333 -0.06171666666666667 0.7733270833333333 0.2550364583333333 1.7770375 0.6704979166666667 2.1719427083333334 0.18510208333333333 0.17276354166666666 0.4031229166666667 0.17686041666666666 0.5429677083333334 0.17686041666666666 0.4853958333333333 0 0.7034166666666667 -0.4031229166666667 0.9461145833333333 -0.8802770833333333 0.2961729166666667 -0.584128125 0.5635479166666667 -1.26284375 0.5635479166666667 -1.26284375s-0.33318854166666667 1.834609375 0.5717895833333334 1.834609375c0.3290677083333333 0 0.6622802083333333 -0.4278 0.8103666666666667 -0.6458208333333334v0.004120833333333333s0.008217708333333334 -0.012338541666666666 0.024677083333333332 -0.041136458333333334c0.03291875 -0.053475 0.053475 -0.08639374999999999 0.053475 -0.08639374999999999v-0.008217708333333334c0.13162708333333334 -0.230359375 0.4278 -0.7527708333333334 0.8679625 -1.6207333333333334 0.5676447916666667 -1.118878125 1.1147572916666666 -2.5174697916666666 1.1147572916666666 -2.5174697916666666s0.049354166666666664 0.3414302083333334 0.21802083333333336 0.9090989583333334c0.09870833333333333 0.33318854166666667 0.304390625 0.6992958333333333 0.46893645833333336 1.0530645833333334 -0.13162708333333334 0.18510208333333333 -0.2139 0.28793125 -0.2139 0.28793125l0.004096875000000001 0.004120833333333333c-0.10695 0.13986875000000001 -0.22211770833333336 0.2920520833333334 -0.34964791666666667 0.44013854166666666 -0.44835625 0.5347739583333333 -0.9831302083333334 1.1476760416666667 -1.0571614583333333 1.3245604166666667 -0.08639374999999999 0.20977916666666668 -0.06581354166666667 0.3619864583333333 0.09873229166666668 0.4853958333333333 0.11928854166666668 0.090490625 0.33318854166666667 0.10282916666666668 0.551209375 0.090490625 0.4031229166666667 -0.02879791666666667 0.6869572916666667 -0.12750625000000002 0.8268020833333334 -0.18922291666666666 0.21802083333333336 -0.07815208333333333 0.47305729166666666 -0.197440625 0.711634375 -0.374325 0.4401625 -0.3249708333333334 0.7075374999999999 -0.7897864583333334 0.6828604166666667 -1.4027125 -0.012338541666666666 -0.337309375 -0.123409375 -0.67461875 -0.2591572916666667 -0.9913479166666668 0.041136458333333334 -0.05759583333333334 0.07815208333333333 -0.11519166666666668 0.11928854166666668 -0.17276354166666666 0.6951750000000001 -1.0160489583333334 1.2340697916666667 -2.13080625 1.2340697916666667 -2.13080625s0.049354166666666664 0.34140625 0.217996875 0.9090750000000001c0.08227291666666667 0.2879552083333333 0.2509395833333334 0.6005875 0.39902604166666666 0.904978125 -0.6540625 0.5306531250000001 -1.0571854166666668 1.1476760416666667 -1.2011510416666666 1.5507989583333335 -0.2591572916666667 0.74865 -0.05759583333333334 1.085959375 0.3249708333333334 1.1641354166666666 0.17276354166666666 0.037015625 0.4195822916666667 -0.04525729166666667 0.6005635416666667 -0.123409375 0.230359375 -0.07405520833333333 0.5018552083333333 -0.20156145833333336 0.7610125000000001 -0.390784375 0.44013854166666666 -0.3249708333333334 0.8638416666666667 -0.777471875 0.839140625 -1.3903739583333334 -0.012338541666666666 -0.2797135416666667 -0.08636979166666667 -0.5553302083333334 -0.18922291666666666 -0.8227052083333334 0.5553302083333334 -0.230359375 1.2710854166666667 -0.357865625 2.18428125 -0.250915625 1.9580427083333336 0.230359375 2.34470625 1.4520666666666668 2.270675 1.9662604166666668 -0.07405520833333333 0.51419375 -0.4853958333333333 0.7939072916666666 -0.62114375 0.8802770833333333 -0.13574791666666666 0.08639374999999999 -0.18100520833333333 0.11519166666666668 -0.16866666666666666 0.17688437499999998 0.016459375 0.090490625 0.08227291666666667 0.08639374999999999 0.19746458333333336 0.06993437500000001 0.160425 -0.02879791666666667 1.0283635416666668 -0.41546145833333337 1.065403125 -1.3615760416666667 0.06169270833333334 -1.2093687499999999 -1.0900802083333334 -2.5298083333333334 -3.126275 -2.5174697916666666ZM4.526951041666667 17.8569125c-0.6499416666666668 0.7075135416666667 -1.5549197916666668 0.9749125000000002 -1.9457041666666668 0.74865 -0.4195727083333334 -0.24269791666666665 -0.2550316666666667 -1.2875208333333332 0.5429916666666667 -2.0361708333333333 0.4853958333333333 -0.456621875 1.1106604166666667 -0.8803010416666668 1.526121875 -1.1394583333333335 0.09461145833333333 -0.05759583333333334 0.23445625 -0.13986875000000001 0.4031229166666667 -0.24269791666666665 0.02879791666666667 -0.016459375 0.045233333333333334 -0.024677083333333332 0.045233333333333334 -0.024677083333333332 0.03291875 -0.020580208333333336 0.0658375 -0.041136458333333334 0.09873229166666668 -0.06169270833333334 0.2920520833333334 1.0695000000000001 0.012338541666666666 2.01149375 -0.6704979166666667 2.7560468750000005ZM9.2575 14.640146875c-0.2262625 0.551209375 -0.6992958333333333 1.9621395833333335 -0.9872510416666668 1.8839875000000001 -0.24681875 -0.06581354166666667 -0.39900208333333337 -1.1353375 -0.049354166666666664 -2.1924989583333336 0.17688437499999998 -0.5306531250000001 0.551209375 -1.1641354166666666 0.7692302083333334 -1.4109541666666667 0.35374479166666667 -0.39488125 0.7445291666666667 -0.5265322916666667 0.839140625 -0.36608333333333337 0.11928854166666668 0.20977916666666668 -0.43192083333333336 1.7399979166666668 -0.5717656249999999 2.0855489583333333Zm3.903722916666667 1.8675281250000002c-0.09461145833333333 0.049354166666666664 -0.18510208333333333 0.08227291666666667 -0.22623854166666668 0.05759583333333334 -0.02879791666666667 -0.016459375 0.041136458333333334 -0.08227291666666667 0.041136458333333334 -0.08227291666666667s0.48949270833333336 -0.5265322916666667 0.6828364583333333 -0.765109375c0.11107083333333334 -0.13986875000000001 0.24269791666666665 -0.3044145833333333 0.38256666666666667 -0.4895166666666667v0.053475c0 0.6293614583333333 -0.6088052083333334 1.0530645833333334 -0.8803010416666668 1.225828125Zm3.0110833333333336 -0.6869572916666667c-0.06991041666666667 -0.049354166666666664 -0.05757187500000001 -0.2139 0.17688437499999998 -0.7280937500000001 0.09051458333333334 -0.20156145833333336 0.3044145833333333 -0.5388708333333334 0.670521875 -0.8638416666666667 0.0411125 0.13165104166666666 0.06991041666666667 0.2591572916666667 0.06581354166666667 0.3784458333333333 -0.004120833333333333 0.7939072916666666 -0.5717895833333334 1.0900802083333334 -0.9132197916666667 1.2134895833333335Z" stroke-width="1"></path></svg>